<?xml version="1.0" encoding="utf-8"?>
<!-- Svg Vector Icons : http://www.onlinewebfonts.com/icon -->
<!DOCTYPE svg PUBLIC "-//W3C//DTD SVG 1.1//EN" "http://www.w3.org/Graphics/SVG/1.1/DTD/svg11.dtd">
<svg version="1.1" xmlns="http://www.w3.org/2000/svg" xmlns:xlink="http://www.w3.org/1999/xlink" x="0px" y="0px" viewBox="0 0 1000 1000" enable-background="new 0 0 1000 1000" xml:space="preserve">
<metadata> Svg Vector Icons : http://www.onlinewebfonts.com/icon </metadata>
<g><path d="M194.2,40.6L194.2,40.6"/><path d="M10,315.8c0,118.7,96.2,214.9,214.9,214.9c118.7,0,214.9-96.2,214.9-214.9l0,0c0-118.7-96.2-214.9-214.9-214.9C106.2,100.9,10,197.1,10,315.8L10,315.8z"/><path d="M682.8,438.2c0,84.8,68.8,153.6,153.6,153.6S990,523,990,438.2l0,0c0-84.8-68.8-153.6-153.6-153.6S682.8,353.3,682.8,438.2L682.8,438.2z"/><path d="M440.7,838.3c0,66.9,54.2,121.1,121.1,121.1s121.1-54.2,121.1-121.1s-54.2-121.1-121.1-121.1S440.7,771.4,440.7,838.3z"/></g>
</svg>