<svg id="Layer_1" data-name="Layer 1" xmlns="http://www.w3.org/2000/svg" xmlns:xlink="http://www.w3.org/1999/xlink" viewBox="0 0 512 512"><defs><style>.cls-1{fill:url(#linear-gradient);}.cls-2{fill:url(#linear-gradient-2);}.cls-3{fill:url(#linear-gradient-3);}.cls-4{fill:url(#linear-gradient-4);}.cls-5{fill:url(#linear-gradient-5);}.cls-6{fill:url(#linear-gradient-6);}.cls-7{fill:url(#linear-gradient-7);}.cls-8{fill:url(#linear-gradient-8);}.cls-9{fill:url(#linear-gradient-9);}</style><linearGradient id="linear-gradient" x1="18.75" y1="18.75" x2="109.25" y2="109.25" gradientUnits="userSpaceOnUse"><stop offset="0" stop-color="#e92359"/><stop offset="1" stop-color="#cf28a5"/></linearGradient><linearGradient id="linear-gradient-2" x1="210.75" y1="18.75" x2="301.25" y2="109.25" gradientUnits="userSpaceOnUse"><stop offset="0" stop-color="#cf28a5"/><stop offset="1" stop-color="#676deb"/></linearGradient><linearGradient id="linear-gradient-3" x1="402.75" y1="18.75" x2="493.25" y2="109.25" gradientUnits="userSpaceOnUse"><stop offset="0" stop-color="#676deb"/><stop offset="1" stop-color="#14c2da"/></linearGradient><linearGradient id="linear-gradient-4" x1="210.75" y1="210.75" x2="301.25" y2="301.25" xlink:href="#linear-gradient-3"/><linearGradient id="linear-gradient-5" x1="402.75" y1="210.75" x2="493.25" y2="301.25" gradientUnits="userSpaceOnUse"><stop offset="0" stop-color="#14c2da"/><stop offset="1" stop-color="#46e934"/></linearGradient><linearGradient id="linear-gradient-6" x1="18.75" y1="210.75" x2="109.25" y2="301.25" xlink:href="#linear-gradient-2"/><linearGradient id="linear-gradient-7" x1="210.75" y1="402.75" x2="301.25" y2="493.25" xlink:href="#linear-gradient-5"/><linearGradient id="linear-gradient-8" x1="18.75" y1="402.75" x2="109.25" y2="493.25" xlink:href="#linear-gradient-3"/><linearGradient id="linear-gradient-9" x1="402.75" y1="402.75" x2="493.25" y2="493.25" gradientUnits="userSpaceOnUse"><stop offset="0" stop-color="#46e934"/><stop offset="1" stop-color="#d0e910"/></linearGradient></defs><title>icon</title><circle class="cls-1" cx="64" cy="64" r="64"/><circle class="cls-2" cx="256" cy="64" r="64"/><circle class="cls-3" cx="448" cy="64" r="64"/><circle class="cls-4" cx="256" cy="256" r="64"/><circle class="cls-5" cx="448" cy="256" r="64"/><circle class="cls-6" cx="64" cy="256" r="64"/><circle class="cls-7" cx="256" cy="448" r="64"/><circle class="cls-8" cx="64" cy="448" r="64"/><circle class="cls-9" cx="448" cy="448" r="64"/></svg>